<svg xmlns="http://www.w3.org/2000/svg" width="512" height="512" viewBox="0 0 512 512">
  <rect width="512" height="512" rx="100" fill="#059669"/>
  <g transform="translate(128, 128) scale(10.67)">
    <path d="M19 17h2c.6 0 1-.4 1-1v-3c0-.9-.7-1.7-1.5-1.9L18 10l-2-4H8L6 10l-2.5 1.1C2.7 11.3 2 12.1 2 13v3c0 .6.4 1 1 1h2" stroke="white" stroke-width="2" fill="none" stroke-linecap="round" stroke-linejoin="round"/>
    <circle cx="7" cy="17" r="2" stroke="white" stroke-width="2" fill="none"/>
    <circle cx="17" cy="17" r="2" stroke="white" stroke-width="2" fill="none"/>
    <path d="M14 7l-2-4H8L6 7" stroke="white" stroke-width="1.5" fill="none" opacity="0.6"/>
    <path d="M5 22 C8 19, 12 24, 16 21 S20 23, 19 22" stroke="#a7f3d0" stroke-width="1.5" fill="none" stroke-linecap="round"/>
  </g>
</svg>
